<?xml version="1.0" encoding="UTF-8"?>
<svg xmlns="http://www.w3.org/2000/svg" viewBox="0 0 224.97 58.82">
  <defs>
    <style>
      .cls-1, .cls-2, .cls-3, .cls-4, .cls-5, .cls-6, .cls-7, .cls-8, .cls-9, .cls-10 {
        stroke-miterlimit: 10;
        stroke-width: .4px;
      }

      .cls-1, .cls-4 {
        stroke: #595757;
      }

      .cls-1, .cls-5 {
        fill: none;
      }

      .cls-11 {
        fill: #0055a5;
        font-family: Arial-BoldMT, Arial;
        font-size: 25.54px;
        font-weight: 700;
      }

      .cls-2, .cls-7 {
        fill: #86c1df;
        stroke: #00a199;
      }

      .cls-2, .cls-10 {
        opacity: .7;
      }

      .cls-3 {
        fill: #eab951;
      }

      .cls-3, .cls-5, .cls-8, .cls-9 {
        stroke: #231815;
      }

      .cls-12 {
        isolation: isolate;
      }

      .cls-4 {
        fill: #b4b4b5;
      }

      .cls-13 {
        fill: #231815;
      }

      .cls-6 {
        fill: #56aadb;
        stroke: #395081;
      }

      .cls-14, .cls-8 {
        fill: #fff;
      }

      .cls-7 {
        opacity: .5;
      }

      .cls-15 {
        opacity: .9;
      }

      .cls-16 {
        fill: #d7d5d5;
        mix-blend-mode: multiply;
      }

      .cls-9 {
        fill: #d94a35;
      }

      .cls-10 {
        fill: #fff000;
        stroke: #717071;
      }
    </style>
  </defs>
  <g class="cls-12">
    <g id="_图层_1" data-name="图层 1">
      <ellipse class="cls-4" cx="25.07" cy="13.69" rx="22.6" ry="13.49"/>
      <ellipse class="cls-4" cx="15.58" cy="18.12" rx="5.36" ry="8.45"/>
      <ellipse class="cls-4" cx="35.05" cy="18.12" rx="5.36" ry="8.45"/>
      <path class="cls-1" d="M19.41,11.39c1.82-.85,3.99-1.15,6.1-1.08,2.11.07,4.18.48,6.2.96"/>
      <path class="cls-2" d="M25.83,13.32c-1.63-.1-3.29,0-4.88.28-.39.07-.79.16-1.12.33-.21.11-.39.25-.56.39-.39.31-3.27,1.63-3.77,1.93,1.86.26,3.46,1.28,4.03,2.55.14.32.22.65.19.98-.06.69-.57,1.32-1.07,1.91-.82.98-3.91,3.05-4.26,3.34-.41.35-.57.8-.72,1.24-.16.48-.32.97-.22,1.46.1.47.44.9.8,1.31.66.75,1.38,1.48,2.18,2.16.93.8,1.34,1.72,2.01,2.65.33.45.65.9.85,1.39.15.36.23.74.3,1.11.14.71.29,1.41.33,2.12.15,2.48-.58,11.96-.62,12.41-.03.34.07.69.09,1.03.03.43-.05.86-.14,1.29-.27,1.35-.54,2.7-.81,4.06.76-.08,1.47-.36,1.97-.77.14-.11.26-.24.44-.32.19-.09,4.62-1.02,5.13-1.09.7-.09,1.41.11,2.05.33,1.57.52,3.06,1.15,4.55,1.78-.16-.83-.34-1.67-.61-2.49-.42-1.29-.33-2.22-.51-5.31-.18-3.13-.27-4.7-.31-6.21-.05-1.87-.01-2.26-.09-3.37-.01-.21-.05-.72-.04-1.42,0-.47.02-.94.12-1.55.08-.49.2-1.18.6-2.01.16-.34.37-.64.77-1.24.5-.75.97-1.47,1.74-2.3.48-.52.99-1,1.08-1.08.72-.67.82-.68,1.09-1.02.47-.58.61-1.11.72-1.53.13-.5.24-.93.07-1.47-.12-.39-.33-.66-.52-.9-.56-.71-1.31-1.21-2.73-2.14-.32-.21-.49-.31-.71-.51-.38-.34-.61-.75-.97-1.1-.18-.17-.38-.33-.54-.52-.32-.38-.39-.84-.42-1.29,0-.14-.01-.28.02-.42.04-.16.14-.3.23-.45.29-.45.58-.9.86-1.35.05-.08.11-.17.2-.24.12-.09.28-.14.44-.19.54-.17,1.07-.33,1.61-.5.59-.18,1.2-.22,1.82-.33-1.61.06-3.13-.63-4-1.58-.1-.11-.2-.23-.33-.33-.19-.14-.45-.24-.7-.32-.54-.19-1.08-.37-1.65-.5-.42-.09-.86-.14-1.29-.19-.95-.11-1.75.05-2.71,0Z"/>
      <path class="cls-7" d="M2.12,42.24c.22-.46.35-.86.44-1.15.04-.13.09-.32.14-.57.1-.54.07-.95.08-1.07.11-1.05.29-1.76.38-2.32.2-1.32.57-3.27.82-6.3.22-2.71.14-3.86.71-6.09.29-1.15.84-2.94,2.32-4.98,1.44-1.99,2.5-2.49,2.87-2.65,1.78-.77,4.31-1.01,6.42-.43.5.14,1.7.49,2.52,1.33.16.17.82.89.74,1.87-.1,1.15-1.16,1.95-1.99,2.58-.98.75-1.32.69-2.4,1.54-.69.54-1.24.98-1.58,1.6-.71,1.3-.04,2.54.37,3.26.56.99.95,1,2.34,2.52.68.74,1.91,2.09,2.61,3.63.69,1.52.66,2.78.63,3.57-.4,10.16-.74,19.1-1.51,19.1-.55,0-1.21-10.48-.68-13.9.17-1.11.04-2.24.21-3.35.16-1.05.35-1.64-.21-2.28-.58-.66-1.8-1.21-2.57-1.02-.44.11-.96.55-1.44.96-.21.18-.86.73-1.46,1.9-.53,1.04-.3,1.38-.88,2.09-.95,1.16-2.66,1.64-2.84,1.69-.4.11-2.41.61-4.27,0-1.54-.5-2.09-1.48-2.74-2.68-.72-1.34-.79-2.45-.92-4.62-.07-1.14-.01-2.78,0-3.79.03-1.87.08-1.99.05-3.2-.02-1.1-.08-1.58,0-2.51.04-.5.11-1.31.39-2.35.17-.62.48-1.37,1.06-2.83.37-.93.6-1.51.96-2.28.57-1.22.83-1.83,1.29-2.4.98-1.21,2.5-2.12,3.6-2.81.07-.04.21-.26.42-.25.23,0,.28.26.71.55.16.11.3.17.57.29.4.18.74.28,1.05.37.41.12.38.09.74.2.58.17.71.26,1.22.42.21.07.54.16.96.24"/>
      <path class="cls-7" d="M38.49,16.49c.2-.1.52-.25.92-.4.58-.22.74-.22,1.51-.47.59-.2,1.02-.37,1.31-.5.49-.21.73-.35.8-.39.49-.28.48-.38.64-.42.69-.19,2.31,1.24,3.42,2.88.5.73.77,1.32,1.29,2.45.36.79.59,1.37.96,2.32.58,1.49.89,2.25,1.06,2.89.28,1.06.34,1.89.39,2.4.08.95.02,1.44,0,2.56-.02,1.24.03,1.35.05,3.27.01,1.04.07,2.71,0,3.87-.13,2.21-.19,3.35-.92,4.72-.65,1.23-1.2,2.23-2.74,2.74-1.86.62-3.87.11-4.27,0-.18-.05-1.9-.54-2.84-1.72-.58-.73-.36-1.08-.88-2.14-.6-1.2-1.25-1.76-1.46-1.94-.48-.42-1-.87-1.44-.98-.76-.19-1.99.37-2.57,1.04-.56.65-.38,1.25-.21,2.32.17,1.13.05,2.28.21,3.42.52,3.5-.14,14.2-.68,14.2-.76,0-1.11-9.12-1.51-19.5-.03-.81-.06-2.09.63-3.64.7-1.57,1.94-2.95,2.61-3.71,1.39-1.55,1.78-1.57,2.34-2.57.4-.73,1.08-2,.37-3.33-.34-.63-.89-1.08-1.58-1.63-1.07-.87-1.42-.81-2.4-1.57-.83-.64-1.89-1.47-1.99-2.64-.08-1,.58-1.73.74-1.9.81-.87,2.01-1.22,2.52-1.36,2.11-.6,4.64-.35,6.42.44.37.16,1.43.67,2.87,2.7,1.48,2.08,2.03,3.91,2.32,5.09.57,2.28.49,3.45.71,6.22.25,3.09.61,5.08.82,6.43.09.57.27,1.3.38,2.37.04.39.02.65.08,1.09.1.78.31,1.41.47,1.82"/>
      <g class="cls-15">
        <ellipse class="cls-10" cx="24.24" cy="44.66" rx=".88" ry=".62"/>
      </g>
      <g class="cls-15">
        <circle class="cls-10" cx="24.16" cy="15.96" r=".87"/>
      </g>
      <g class="cls-15">
        <circle class="cls-10" cx="28.25" cy="13.92" r=".58"/>
      </g>
      <g class="cls-15">
        <ellipse class="cls-10" cx="20.05" cy="38.38" rx=".45" ry=".32"/>
      </g>
      <g class="cls-15">
        <ellipse class="cls-10" cx="25.81" cy="34.83" rx=".88" ry=".97"/>
      </g>
      <g class="cls-15">
        <ellipse class="cls-10" cx="21.05" cy="40.44" rx=".45" ry=".49"/>
      </g>
      <g class="cls-15">
        <ellipse class="cls-10" cx="22.22" cy="40.58" rx=".88" ry=".62"/>
      </g>
      <g class="cls-15">
        <ellipse class="cls-10" cx="20.27" cy="7.38" rx=".36" ry=".28"/>
      </g>
      <g class="cls-15">
        <ellipse class="cls-10" cx="28.45" cy="44.03" rx=".88" ry=".74"/>
      </g>
      <g class="cls-15">
        <ellipse class="cls-10" cx="29.1" cy="8.38" rx=".45" ry=".32"/>
      </g>
      <g class="cls-15">
        <circle class="cls-10" cx="27.05" cy="18.62" r=".58"/>
      </g>
      <g class="cls-15">
        <ellipse class="cls-10" cx="33.39" cy="47.17" rx=".88" ry=".62"/>
      </g>
      <path class="cls-16" d="M25.07,38.71l-.34.02.38-1.49c.08.59,0,1.02-.04,1.47Z"/>
      <g class="cls-15">
        <text/>
      </g>
      <g class="cls-15">
        <circle class="cls-10" cx="25.26" cy="5.8" r="1.1"/>
      </g>
      <g class="cls-15">
        <circle class="cls-10" cx="18.35" cy="33.24" r="1.1" transform="translate(-18.58 24.42) rotate(-47.67)"/>
      </g>
      <g class="cls-15">
        <circle class="cls-10" cx="10.01" cy="37.34" r=".56" transform="translate(-24.34 19.6) rotate(-47.67)"/>
      </g>
      <g class="cls-15">
        <circle class="cls-10" cx="22.08" cy="4.98" r="1.1"/>
      </g>
      <rect class="cls-6" x="8.05" y="21.87" width="33.98" height="25.73" rx="3.01" ry="3.01"/>
      <g>
        <circle class="cls-8" cx="15.99" cy="31.27" r="3.62"/>
        <circle class="cls-13" cx="15.99" cy="31.27" r="2.17"/>
        <ellipse class="cls-14" cx="15.22" cy="30.66" rx=".81" ry=".6" transform="translate(-16.15 16.95) rotate(-40)"/>
        <ellipse class="cls-14" cx="16.86" cy="32.34" rx=".41" ry=".33" transform="translate(-16.85 18.41) rotate(-40)"/>
      </g>
      <g>
        <circle class="cls-8" cx="33.89" cy="31.27" r="3.62"/>
        <circle class="cls-13" cx="33.89" cy="31.27" r="2.17"/>
        <ellipse class="cls-14" cx="33.12" cy="30.66" rx=".81" ry=".6" transform="translate(-11.96 28.46) rotate(-40)"/>
        <ellipse class="cls-14" cx="34.77" cy="32.34" rx=".41" ry=".33" transform="translate(-12.66 29.91) rotate(-40)"/>
      </g>
      <path class="cls-8" d="M30.21,39.19c0,2.54-2.19,4.6-4.89,4.6s-4.89-2.06-4.89-4.6"/>
      <line class="cls-5" x1="20.42" y1="39.6" x2="30.21" y2="39.6"/>
      <path class="cls-9" d="M15.57,21.66c0-1.78,1.14-3.23,2.56-3.23h13.82c1.41,0,2.56,1.45,2.56,3.23"/>
      <path class="cls-9" d="M7.45,43.24c-1.67,0-3.03-1.07-3.03-2.4v-12.96c0-1.32,1.36-2.4,3.03-2.4"/>
      <path class="cls-9" d="M42.37,43.24c1.67,0,3.03-1.07,3.03-2.4v-12.96c0-1.32-1.36-2.4-3.03-2.4"/>
      <path class="cls-3" d="M22.82,18.53s-.12-.4-.12-.81c0-1.5,1.22-2.72,2.72-2.72s2.72,1.22,2.72,2.72c0,.28-.04.55-.12.81"/>
      <line class="cls-5" x1="45.4" y1="35.79" x2="45.4" y2="26.66"/>
      <circle class="cls-3" cx="45.5" cy="24.51" r="2.17"/>
      <line class="cls-5" x1="4.42" y1="35.79" x2="4.42" y2="26.66"/>
      <circle class="cls-3" cx="4.65" cy="24.54" r="2.17"/>
      <text class="cls-11" transform="translate(57.16 35.92)"><tspan x="0" y="0">NanoCortex</tspan></text>
    </g>
  </g>
</svg>